<mxfile host="app.diagrams.net" modified="2022-02-27T11:56:10.837Z" agent="5.0 (Macintosh; Intel Mac OS X 10_15_7) AppleWebKit/605.1.15 (KHTML, like Gecko) Version/15.2 Safari/605.1.15" etag="e3nXmCRMfTjiXcpjgnyp" version="16.6.4" type="github">
  <diagram name="Page-1" id="03018318-947c-dd8e-b7a3-06fadd420f32">
    <mxGraphModel dx="1306" dy="1676" grid="1" gridSize="10" guides="1" tooltips="1" connect="1" arrows="1" fold="1" page="1" pageScale="1" pageWidth="1100" pageHeight="850" background="none" math="0" shadow="0">
      <root>
        <mxCell id="0" />
        <mxCell id="1" parent="0" />
        <mxCell id="GRDT87PzaCO0oU7K1cTU-1" value="" style="whiteSpace=wrap;html=1;rounded=0;shadow=0;labelBackgroundColor=#E6E6E6;strokeColor=#000000;strokeWidth=1;fillColor=#67AB9F;fontFamily=Verdana;fontSize=12;fontColor=#000000;align=center;comic=1;labelBorderColor=none;" vertex="1" parent="1">
          <mxGeometry x="20" y="-570" width="320" height="600" as="geometry" />
        </mxCell>
        <mxCell id="677b7b8949515195-1" value="" style="whiteSpace=wrap;html=1;rounded=0;shadow=0;labelBackgroundColor=none;strokeColor=#000000;strokeWidth=1;fillColor=none;fontFamily=Verdana;fontSize=12;fontColor=#000000;align=center;comic=1;" parent="1" vertex="1">
          <mxGeometry x="40" y="170" width="1060" height="810" as="geometry" />
        </mxCell>
        <mxCell id="677b7b8949515195-2" value="" style="whiteSpace=wrap;html=1;rounded=0;shadow=0;labelBackgroundColor=#67AB9F;strokeWidth=1;fontFamily=Verdana;fontSize=28;align=center;comic=1;fillColor=#D5E8D4;" parent="1" vertex="1">
          <mxGeometry x="20" y="-50" width="320" height="80" as="geometry" />
        </mxCell>
        <mxCell id="677b7b8949515195-3" value="Search" style="strokeWidth=1;shadow=0;dashed=0;align=center;html=1;shape=mxgraph.mockup.forms.searchBox;strokeColor=#999999;mainText=;strokeColor2=#008cff;fontColor=#666666;fontSize=17;align=left;spacingLeft=3;rounded=0;labelBackgroundColor=none;comic=1;" parent="1" vertex="1">
          <mxGeometry x="840" y="95" width="220" height="30" as="geometry" />
        </mxCell>
        <mxCell id="677b7b8949515195-6" value="Topic 3" style="text;html=1;points=[];align=left;verticalAlign=top;spacingTop=-4;fontSize=14;fontFamily=Comic Sans MS;" parent="1" vertex="1">
          <mxGeometry x="930" y="40" width="60" height="20" as="geometry" />
        </mxCell>
        <mxCell id="677b7b8949515195-7" value="Topic 4" style="text;html=1;points=[];align=left;verticalAlign=top;spacingTop=-4;fontSize=14;fontFamily=Comic Sans MS;" parent="1" vertex="1">
          <mxGeometry x="880" y="-180" width="60" height="20" as="geometry" />
        </mxCell>
        <mxCell id="677b7b8949515195-8" value="" style="whiteSpace=wrap;html=1;rounded=0;shadow=0;labelBackgroundColor=none;strokeWidth=1;fillColor=#D5E8D4;fontFamily=Verdana;fontSize=12;align=center;comic=1;" parent="1" vertex="1">
          <mxGeometry x="20" y="-570" width="320" height="50" as="geometry" />
        </mxCell>
        <mxCell id="677b7b8949515195-9" value="" style="line;strokeWidth=1;html=1;rounded=0;shadow=0;labelBackgroundColor=none;fillColor=none;fontFamily=Verdana;fontSize=14;fontColor=#000000;align=center;comic=1;" parent="1" vertex="1">
          <mxGeometry x="20" y="140" width="1060" height="10" as="geometry" />
        </mxCell>
        <mxCell id="677b7b8949515195-10" value="" style="whiteSpace=wrap;html=1;rounded=0;shadow=0;labelBackgroundColor=none;strokeWidth=1;fillColor=none;fontFamily=Verdana;fontSize=12;align=center;comic=1;" parent="1" vertex="1">
          <mxGeometry x="30" y="160" width="1040" height="50" as="geometry" />
        </mxCell>
        <mxCell id="677b7b8949515195-11" value="Section 1" style="text;html=1;points=[];align=left;verticalAlign=top;spacingTop=-4;fontSize=14;fontFamily=Verdana" parent="1" vertex="1">
          <mxGeometry x="330" y="175" width="60" height="20" as="geometry" />
        </mxCell>
        <mxCell id="677b7b8949515195-12" value="Section 2" style="text;html=1;points=[];align=left;verticalAlign=top;spacingTop=-4;fontSize=14;fontFamily=Verdana" parent="1" vertex="1">
          <mxGeometry x="477" y="175" width="60" height="20" as="geometry" />
        </mxCell>
        <mxCell id="677b7b8949515195-13" value="Section 3" style="text;html=1;points=[];align=left;verticalAlign=top;spacingTop=-4;fontSize=14;fontFamily=Verdana" parent="1" vertex="1">
          <mxGeometry x="623" y="175" width="60" height="20" as="geometry" />
        </mxCell>
        <mxCell id="677b7b8949515195-14" value="Section 4" style="text;html=1;points=[];align=left;verticalAlign=top;spacingTop=-4;fontSize=14;fontFamily=Verdana" parent="1" vertex="1">
          <mxGeometry x="770" y="175" width="60" height="20" as="geometry" />
        </mxCell>
        <mxCell id="677b7b8949515195-15" value="&lt;div style=&quot;text-align: justify&quot;&gt;&lt;span&gt;Lorem ipsum dolor sit amet, consectetur adipisicing elit, sed do eiusmod tempor incididunt ut labore et dolore magna aliqua. Ut enim ad minim veniam, quis nostrud exercitation ullamco laboris nisi ut aliquip ex ea commodo consequat. Duis aute irure dolor in reprehenderit in voluptate velit esse cillum dolore eu fugiat nulla pariatur. Excepteur sint occaecat cupidatat non proident, sunt in culpa qui officia deserunt mollit anim id est laborum.&lt;/span&gt;&lt;/div&gt;&lt;div style=&quot;text-align: justify&quot;&gt;&lt;span&gt;Sed ut perspiciatis unde omnis iste natus error sit voluptatem accusantium doloremque laudantium, totam rem aperiam, eaque ipsa quae ab illo inventore veritatis et quasi architecto beatae vitae dicta sunt explicabo. Nemo enim ipsam voluptatem quia voluptas sit aspernatur aut odit aut fugit, sed quia consequuntur magni dolores eos qui ratione voluptatem sequi nesciunt.&amp;nbsp;&lt;/span&gt;&lt;/div&gt;" style="whiteSpace=wrap;html=1;rounded=0;shadow=0;labelBackgroundColor=none;strokeWidth=1;fillColor=none;fontFamily=Verdana;fontSize=12;align=center;verticalAlign=top;spacing=10;comic=1;" parent="1" vertex="1">
          <mxGeometry x="250" y="640" width="580" height="180" as="geometry" />
        </mxCell>
        <mxCell id="677b7b8949515195-25" value="" style="whiteSpace=wrap;html=1;rounded=0;shadow=0;labelBackgroundColor=none;strokeWidth=1;fillColor=none;fontFamily=Verdana;fontSize=12;align=center;comic=1;" parent="1" vertex="1">
          <mxGeometry x="840" y="230" width="230" height="400" as="geometry" />
        </mxCell>
        <mxCell id="677b7b8949515195-26" value="" style="whiteSpace=wrap;html=1;rounded=0;shadow=0;labelBackgroundColor=none;strokeWidth=1;fillColor=none;fontFamily=Verdana;fontSize=12;align=center;comic=1;" parent="1" vertex="1">
          <mxGeometry x="840" y="640" width="230" height="180" as="geometry" />
        </mxCell>
        <mxCell id="677b7b8949515195-27" value="Section 1" style="text;html=1;points=[];align=left;verticalAlign=top;spacingTop=-4;fontSize=14;fontFamily=Verdana" parent="1" vertex="1">
          <mxGeometry x="40" y="250" width="170" height="20" as="geometry" />
        </mxCell>
        <mxCell id="677b7b8949515195-28" value="Section 2" style="text;html=1;points=[];align=left;verticalAlign=top;spacingTop=-4;fontSize=14;fontFamily=Verdana" parent="1" vertex="1">
          <mxGeometry x="40" y="286" width="170" height="20" as="geometry" />
        </mxCell>
        <mxCell id="677b7b8949515195-29" value="Section 3" style="text;html=1;points=[];align=left;verticalAlign=top;spacingTop=-4;fontSize=14;fontFamily=Verdana" parent="1" vertex="1">
          <mxGeometry x="40" y="321" width="170" height="20" as="geometry" />
        </mxCell>
        <mxCell id="677b7b8949515195-30" value="Section 4" style="text;html=1;points=[];align=left;verticalAlign=top;spacingTop=-4;fontSize=14;fontFamily=Verdana" parent="1" vertex="1">
          <mxGeometry x="40" y="357" width="170" height="20" as="geometry" />
        </mxCell>
        <mxCell id="677b7b8949515195-31" value="Section 7" style="text;html=1;points=[];align=left;verticalAlign=top;spacingTop=-4;fontSize=14;fontFamily=Verdana" parent="1" vertex="1">
          <mxGeometry x="40" y="464" width="170" height="20" as="geometry" />
        </mxCell>
        <mxCell id="677b7b8949515195-32" value="Section 8" style="text;html=1;points=[];align=left;verticalAlign=top;spacingTop=-4;fontSize=14;fontFamily=Verdana" parent="1" vertex="1">
          <mxGeometry x="40" y="500" width="170" height="20" as="geometry" />
        </mxCell>
        <mxCell id="677b7b8949515195-33" value="Section 9" style="text;html=1;points=[];align=left;verticalAlign=top;spacingTop=-4;fontSize=14;fontFamily=Verdana" parent="1" vertex="1">
          <mxGeometry x="40" y="536" width="170" height="20" as="geometry" />
        </mxCell>
        <mxCell id="677b7b8949515195-34" value="Section 10" style="text;html=1;points=[];align=left;verticalAlign=top;spacingTop=-4;fontSize=14;fontFamily=Verdana" parent="1" vertex="1">
          <mxGeometry x="40" y="571" width="170" height="20" as="geometry" />
        </mxCell>
        <mxCell id="677b7b8949515195-35" value="Section 11" style="text;html=1;points=[];align=left;verticalAlign=top;spacingTop=-4;fontSize=14;fontFamily=Verdana" parent="1" vertex="1">
          <mxGeometry x="40" y="607" width="170" height="20" as="geometry" />
        </mxCell>
        <mxCell id="677b7b8949515195-36" value="Section 12" style="text;html=1;points=[];align=left;verticalAlign=top;spacingTop=-4;fontSize=14;fontFamily=Verdana" parent="1" vertex="1">
          <mxGeometry x="40" y="643" width="170" height="20" as="geometry" />
        </mxCell>
        <mxCell id="677b7b8949515195-37" value="Section 13" style="text;html=1;points=[];align=left;verticalAlign=top;spacingTop=-4;fontSize=14;fontFamily=Verdana" parent="1" vertex="1">
          <mxGeometry x="40" y="679" width="170" height="20" as="geometry" />
        </mxCell>
        <mxCell id="677b7b8949515195-38" value="Section 14" style="text;html=1;points=[];align=left;verticalAlign=top;spacingTop=-4;fontSize=14;fontFamily=Verdana" parent="1" vertex="1">
          <mxGeometry x="40" y="714" width="170" height="20" as="geometry" />
        </mxCell>
        <mxCell id="677b7b8949515195-39" value="Section 5" style="text;html=1;points=[];align=left;verticalAlign=top;spacingTop=-4;fontSize=14;fontFamily=Verdana" parent="1" vertex="1">
          <mxGeometry x="40" y="393" width="170" height="20" as="geometry" />
        </mxCell>
        <mxCell id="677b7b8949515195-40" value="Section 6" style="text;html=1;points=[];align=left;verticalAlign=top;spacingTop=-4;fontSize=14;fontFamily=Verdana" parent="1" vertex="1">
          <mxGeometry x="40" y="429" width="170" height="20" as="geometry" />
        </mxCell>
        <mxCell id="677b7b8949515195-41" value="Section 15" style="text;html=1;points=[];align=left;verticalAlign=top;spacingTop=-4;fontSize=14;fontFamily=Verdana" parent="1" vertex="1">
          <mxGeometry x="40" y="750" width="170" height="20" as="geometry" />
        </mxCell>
        <mxCell id="677b7b8949515195-42" value="External Links" style="text;html=1;points=[];align=left;verticalAlign=top;spacingTop=-4;fontSize=14;fontFamily=Verdana" parent="1" vertex="1">
          <mxGeometry x="860" y="653" width="170" height="20" as="geometry" />
        </mxCell>
        <mxCell id="677b7b8949515195-44" value="Feature 1" style="text;html=1;points=[];align=left;verticalAlign=top;spacingTop=-4;fontSize=14;fontFamily=Verdana" parent="1" vertex="1">
          <mxGeometry x="860" y="250" width="170" height="20" as="geometry" />
        </mxCell>
        <mxCell id="677b7b8949515195-45" value="Feature 2" style="text;html=1;points=[];align=left;verticalAlign=top;spacingTop=-4;fontSize=14;fontFamily=Verdana" parent="1" vertex="1">
          <mxGeometry x="860" y="285" width="170" height="20" as="geometry" />
        </mxCell>
        <mxCell id="677b7b8949515195-46" value="Feature 3" style="text;html=1;points=[];align=left;verticalAlign=top;spacingTop=-4;fontSize=14;fontFamily=Verdana" parent="1" vertex="1">
          <mxGeometry x="860" y="320" width="170" height="20" as="geometry" />
        </mxCell>
        <mxCell id="677b7b8949515195-47" value="Feature 4" style="text;html=1;points=[];align=left;verticalAlign=top;spacingTop=-4;fontSize=14;fontFamily=Verdana" parent="1" vertex="1">
          <mxGeometry x="860" y="355" width="170" height="20" as="geometry" />
        </mxCell>
        <mxCell id="677b7b8949515195-48" value="Feature 5" style="text;html=1;points=[];align=left;verticalAlign=top;spacingTop=-4;fontSize=14;fontFamily=Verdana" parent="1" vertex="1">
          <mxGeometry x="860" y="390" width="170" height="20" as="geometry" />
        </mxCell>
        <mxCell id="677b7b8949515195-49" value="Feature 6" style="text;html=1;points=[];align=left;verticalAlign=top;spacingTop=-4;fontSize=14;fontFamily=Verdana" parent="1" vertex="1">
          <mxGeometry x="860" y="425" width="170" height="20" as="geometry" />
        </mxCell>
        <mxCell id="GRDT87PzaCO0oU7K1cTU-6" value="&lt;p style=&quot;margin: 0px 0px 2px; font-style: normal; font-variant-caps: normal; font-weight: normal; font-stretch: normal; font-size: 15px; line-height: normal; font-family: menlo;&quot;&gt;169&lt;/p&gt;" style="verticalLabelPosition=bottom;shadow=0;dashed=0;align=center;html=1;verticalAlign=top;strokeWidth=1;shape=mxgraph.mockup.graphics.simpleIcon;strokeColor=#999999;rounded=0;labelBackgroundColor=none;fontFamily=Verdana;fontSize=14;fontColor=none;comic=1;noLabel=1;" vertex="1" parent="1">
          <mxGeometry x="290" y="-559.37" width="40" height="28.75" as="geometry" />
        </mxCell>
        <mxCell id="GRDT87PzaCO0oU7K1cTU-8" value="" style="whiteSpace=wrap;html=1;rounded=0;shadow=0;labelBackgroundColor=none;strokeWidth=1;fillColor=default;fontFamily=Verdana;fontSize=12;align=center;comic=1;" vertex="1" parent="1">
          <mxGeometry x="30" y="-490" width="300" height="98.75" as="geometry" />
        </mxCell>
        <mxCell id="GRDT87PzaCO0oU7K1cTU-9" value="&lt;p style=&quot;margin: 0px 0px 2px; font-style: normal; font-variant-caps: normal; font-weight: normal; font-stretch: normal; font-size: 15px; line-height: normal; font-family: menlo;&quot;&gt;169&lt;/p&gt;" style="verticalLabelPosition=bottom;shadow=0;dashed=0;align=center;html=1;verticalAlign=top;strokeWidth=1;shape=mxgraph.mockup.graphics.simpleIcon;strokeColor=#999999;rounded=0;labelBackgroundColor=none;fontFamily=Verdana;fontSize=14;fontColor=none;comic=1;noLabel=1;" vertex="1" parent="1">
          <mxGeometry x="40" y="-480" width="60" height="80" as="geometry" />
        </mxCell>
        <mxCell id="677b7b8949515195-5" value="Book Title" style="text;html=1;points=[];align=left;verticalAlign=top;spacingTop=-4;fontSize=14;fontFamily=Comic Sans MS;" parent="1" vertex="1">
          <mxGeometry x="120" y="-480" width="60" height="20" as="geometry" />
        </mxCell>
        <mxCell id="GRDT87PzaCO0oU7K1cTU-12" value="Cover" style="text;html=1;points=[];align=left;verticalAlign=top;spacingTop=-4;fontSize=14;fontFamily=Comic Sans MS;labelBackgroundColor=default;" vertex="1" parent="1">
          <mxGeometry x="50" y="-450.62" width="60" height="20" as="geometry" />
        </mxCell>
        <mxCell id="GRDT87PzaCO0oU7K1cTU-13" value="Author" style="text;html=1;points=[];align=left;verticalAlign=top;spacingTop=-4;fontSize=14;fontFamily=Comic Sans MS;" vertex="1" parent="1">
          <mxGeometry x="120" y="-460" width="60" height="20" as="geometry" />
        </mxCell>
        <mxCell id="GRDT87PzaCO0oU7K1cTU-14" value="Date" style="text;html=1;points=[];align=left;verticalAlign=top;spacingTop=-4;fontSize=14;fontFamily=Comic Sans MS;" vertex="1" parent="1">
          <mxGeometry x="120" y="-440" width="60" height="20" as="geometry" />
        </mxCell>
        <mxCell id="677b7b8949515195-16" value="&lt;p style=&quot;margin: 0px 0px 2px; font-style: normal; font-variant-caps: normal; font-weight: normal; font-stretch: normal; font-size: 15px; line-height: normal; font-family: menlo;&quot;&gt;169&lt;/p&gt;" style="verticalLabelPosition=bottom;shadow=0;dashed=0;align=center;html=1;verticalAlign=top;strokeWidth=1;shape=mxgraph.mockup.graphics.simpleIcon;strokeColor=#999999;rounded=0;labelBackgroundColor=none;fontFamily=Verdana;fontSize=14;fontColor=none;comic=1;noLabel=1;" parent="1" vertex="1">
          <mxGeometry x="690" y="-110" width="50" height="45" as="geometry" />
        </mxCell>
        <mxCell id="GRDT87PzaCO0oU7K1cTU-16" value="" style="rounded=1;whiteSpace=wrap;html=1;strokeWidth=2;fillWeight=4;hachureGap=8;hachureAngle=45;fillColor=#67AB9F;sketch=1;labelBackgroundColor=default;labelBorderColor=none;fontFamily=Comic Sans MS;fontColor=none;" vertex="1" parent="1">
          <mxGeometry x="800" y="-250" width="40" height="30" as="geometry" />
        </mxCell>
        <mxCell id="GRDT87PzaCO0oU7K1cTU-3" value="&lt;p style=&quot;margin: 0px 0px 2px; font-style: normal; font-variant-caps: normal; font-weight: normal; font-stretch: normal; font-size: 15px; line-height: normal; font-family: menlo;&quot;&gt;169&lt;/p&gt;" style="verticalLabelPosition=bottom;shadow=0;dashed=0;align=center;html=1;verticalAlign=top;strokeWidth=1;shape=mxgraph.mockup.graphics.simpleIcon;strokeColor=#999999;rounded=0;labelBackgroundColor=none;fontFamily=Verdana;fontSize=14;fontColor=none;comic=1;noLabel=1;" vertex="1" parent="1">
          <mxGeometry x="775" y="-123.12" width="50" height="47.5" as="geometry" />
        </mxCell>
        <mxCell id="GRDT87PzaCO0oU7K1cTU-21" value="" style="group" vertex="1" connectable="0" parent="1">
          <mxGeometry x="255" y="-40" width="60" height="63.5" as="geometry" />
        </mxCell>
        <mxCell id="GRDT87PzaCO0oU7K1cTU-19" value="" style="rounded=1;whiteSpace=wrap;html=1;strokeWidth=2;fillWeight=4;hachureGap=8;hachureAngle=45;fillColor=#67AB9F;sketch=1;labelBackgroundColor=default;labelBorderColor=none;fontFamily=Comic Sans MS;fontColor=none;" vertex="1" parent="GRDT87PzaCO0oU7K1cTU-21">
          <mxGeometry x="5" width="50" height="40" as="geometry" />
        </mxCell>
        <mxCell id="GRDT87PzaCO0oU7K1cTU-20" value="&lt;font face=&quot;Comic Sans MS&quot;&gt;Settings&lt;/font&gt;" style="text;html=1;points=[];align=left;verticalAlign=top;spacingTop=-4;fontSize=14;fontFamily=Verdana" vertex="1" parent="GRDT87PzaCO0oU7K1cTU-21">
          <mxGeometry y="43.5" width="60" height="20" as="geometry" />
        </mxCell>
        <mxCell id="GRDT87PzaCO0oU7K1cTU-22" value="" style="group" vertex="1" connectable="0" parent="1">
          <mxGeometry x="150" y="-40" width="60" height="63.5" as="geometry" />
        </mxCell>
        <mxCell id="GRDT87PzaCO0oU7K1cTU-4" value="&lt;font face=&quot;Comic Sans MS&quot;&gt;Wishlist&lt;/font&gt;" style="text;html=1;points=[];align=left;verticalAlign=top;spacingTop=-4;fontSize=14;fontFamily=Verdana" vertex="1" parent="GRDT87PzaCO0oU7K1cTU-22">
          <mxGeometry y="43.5" width="60" height="20" as="geometry" />
        </mxCell>
        <mxCell id="GRDT87PzaCO0oU7K1cTU-17" value="" style="rounded=1;whiteSpace=wrap;html=1;strokeWidth=2;fillWeight=4;hachureGap=8;hachureAngle=45;fillColor=#67AB9F;sketch=1;labelBackgroundColor=default;labelBorderColor=none;fontFamily=Comic Sans MS;fontColor=none;" vertex="1" parent="GRDT87PzaCO0oU7K1cTU-22">
          <mxGeometry x="5" width="50" height="40" as="geometry" />
        </mxCell>
        <mxCell id="GRDT87PzaCO0oU7K1cTU-23" value="" style="group" vertex="1" connectable="0" parent="1">
          <mxGeometry x="40" y="-40" width="60" height="63.5" as="geometry" />
        </mxCell>
        <mxCell id="GRDT87PzaCO0oU7K1cTU-15" value="" style="rounded=1;whiteSpace=wrap;html=1;strokeWidth=2;fillWeight=4;hachureGap=8;hachureAngle=45;fillColor=#67AB9F;sketch=1;labelBackgroundColor=default;labelBorderColor=none;fontFamily=Comic Sans MS;fontColor=none;" vertex="1" parent="GRDT87PzaCO0oU7K1cTU-23">
          <mxGeometry x="10" width="50" height="40" as="geometry" />
        </mxCell>
        <mxCell id="677b7b8949515195-4" value="&lt;font face=&quot;Comic Sans MS&quot;&gt;Bookshelf&lt;/font&gt;" style="text;html=1;points=[];align=left;verticalAlign=top;spacingTop=-4;fontSize=14;fontFamily=Verdana" parent="GRDT87PzaCO0oU7K1cTU-23" vertex="1">
          <mxGeometry y="43.5" width="60" height="20" as="geometry" />
        </mxCell>
        <mxCell id="GRDT87PzaCO0oU7K1cTU-25" value="Topic 3" style="text;html=1;points=[];align=left;verticalAlign=top;spacingTop=-4;fontSize=14;fontFamily=Comic Sans MS;" vertex="1" parent="1">
          <mxGeometry x="880" y="-240" width="60" height="20" as="geometry" />
        </mxCell>
        <mxCell id="GRDT87PzaCO0oU7K1cTU-26" value="Kategorie" style="text;html=1;points=[];align=left;verticalAlign=top;spacingTop=-4;fontSize=14;fontFamily=Comic Sans MS;" vertex="1" parent="1">
          <mxGeometry x="120" y="-420" width="60" height="20" as="geometry" />
        </mxCell>
        <mxCell id="GRDT87PzaCO0oU7K1cTU-29" value="Filter" style="strokeWidth=1;shadow=0;dashed=0;align=center;html=1;shape=mxgraph.mockup.text.callout;linkText=;textSize=17;textColor=#666666;callDir=NE;callStyle=line;fontSize=17;fontColor=#666666;align=right;verticalAlign=top;strokeColor=#666666;labelBackgroundColor=default;labelBorderColor=none;fontFamily=Comic Sans MS;fillColor=#67AB9F;" vertex="1" parent="1">
          <mxGeometry x="315" y="-650" width="85" height="100" as="geometry" />
        </mxCell>
        <mxCell id="GRDT87PzaCO0oU7K1cTU-30" value="" style="shape=mxgraph.mockup.markup.scratchOut;shadow=0;dashed=0;html=1;strokeColor=#999999;strokeWidth=4;labelBackgroundColor=default;labelBorderColor=none;fontFamily=Comic Sans MS;fontColor=none;fillColor=#67AB9F;" vertex="1" parent="1">
          <mxGeometry x="810" y="-480" width="200" height="100" as="geometry" />
        </mxCell>
        <mxCell id="GRDT87PzaCO0oU7K1cTU-34" value="" style="group;strokeWidth=10;" vertex="1" connectable="0" parent="1">
          <mxGeometry x="603" y="-559.37" width="80" height="80" as="geometry" />
        </mxCell>
        <mxCell id="GRDT87PzaCO0oU7K1cTU-32" value="" style="ellipse;whiteSpace=wrap;html=1;aspect=fixed;labelBackgroundColor=default;labelBorderColor=none;fontFamily=Comic Sans MS;fontColor=none;fillColor=#67AB9F;" vertex="1" parent="GRDT87PzaCO0oU7K1cTU-34">
          <mxGeometry width="80" height="80" as="geometry" />
        </mxCell>
        <mxCell id="GRDT87PzaCO0oU7K1cTU-39" value="" style="ellipse;shape=doubleEllipse;whiteSpace=wrap;html=1;aspect=fixed;labelBackgroundColor=default;labelBorderColor=none;fontFamily=Comic Sans MS;fontColor=none;strokeWidth=2;fillColor=#FFFFFF;" vertex="1" parent="1">
          <mxGeometry x="670" y="-370" width="80" height="80" as="geometry" />
        </mxCell>
        <mxCell id="GRDT87PzaCO0oU7K1cTU-42" value="" style="group" vertex="1" connectable="0" parent="1">
          <mxGeometry x="255" y="-469.82" width="48" height="58.38" as="geometry" />
        </mxCell>
        <mxCell id="GRDT87PzaCO0oU7K1cTU-41" value="" style="ellipse;whiteSpace=wrap;html=1;aspect=fixed;labelBackgroundColor=default;labelBorderColor=none;fontFamily=Comic Sans MS;fontColor=none;strokeWidth=8;fillColor=#FFFFFF;strokeColor=#67AB9F;" vertex="1" parent="GRDT87PzaCO0oU7K1cTU-42">
          <mxGeometry x="5.333333333333334" y="11.204242424242425" width="39.00463458110517" height="39.00463458110517" as="geometry" />
        </mxCell>
        <mxCell id="GRDT87PzaCO0oU7K1cTU-40" value="" style="rounded=0;whiteSpace=wrap;html=1;labelBackgroundColor=default;labelBorderColor=none;fontFamily=Comic Sans MS;fontColor=none;strokeWidth=2;fillColor=#FFFFFF;strokeColor=none;" vertex="1" parent="GRDT87PzaCO0oU7K1cTU-42">
          <mxGeometry width="26.666666666666668" height="41.27878787878788" as="geometry" />
        </mxCell>
        <mxCell id="GRDT87PzaCO0oU7K1cTU-43" value="Progess (read)" style="strokeWidth=1;shadow=0;dashed=0;align=center;html=1;shape=mxgraph.mockup.text.callout;linkText=;textSize=17;textColor=#666666;callDir=NE;callStyle=line;fontSize=17;fontColor=#666666;align=right;verticalAlign=top;strokeColor=#666666;labelBackgroundColor=default;labelBorderColor=none;fontFamily=Comic Sans MS;fillColor=#67AB9F;" vertex="1" parent="1">
          <mxGeometry x="300" y="-490" width="205" height="50" as="geometry" />
        </mxCell>
        <mxCell id="GRDT87PzaCO0oU7K1cTU-44" value="&lt;p style=&quot;margin: 0px 0px 2px; font-style: normal; font-variant-caps: normal; font-weight: normal; font-stretch: normal; font-size: 15px; line-height: normal; font-family: menlo;&quot;&gt;169&lt;/p&gt;" style="verticalLabelPosition=bottom;shadow=0;dashed=0;align=center;html=1;verticalAlign=top;strokeWidth=1;shape=mxgraph.mockup.graphics.simpleIcon;strokeColor=#999999;rounded=0;labelBackgroundColor=none;fontFamily=Verdana;fontSize=14;fontColor=none;comic=1;noLabel=1;" vertex="1" parent="1">
          <mxGeometry x="30" y="-559.37" width="40" height="28.75" as="geometry" />
        </mxCell>
        <mxCell id="GRDT87PzaCO0oU7K1cTU-45" value="Add" style="strokeWidth=1;shadow=0;dashed=0;align=center;html=1;shape=mxgraph.mockup.text.callout;linkText=;textSize=17;textColor=#666666;callDir=NE;callStyle=line;fontSize=17;fontColor=#666666;align=right;verticalAlign=top;strokeColor=#666666;labelBackgroundColor=default;labelBorderColor=none;fontFamily=Comic Sans MS;fillColor=#67AB9F;" vertex="1" parent="1">
          <mxGeometry x="40" y="-650" width="85" height="100" as="geometry" />
        </mxCell>
      </root>
    </mxGraphModel>
  </diagram>
</mxfile>
